<?xml version="1.0" standalone="no"?>
<!DOCTYPE svg PUBLIC "-//W3C//DTD SVG 20010904//EN"
 "http://www.w3.org/TR/2001/REC-SVG-20010904/DTD/svg10.dtd">
<svg version="1.0" xmlns="http://www.w3.org/2000/svg"
 width="531.000000pt" height="531.000000pt" viewBox="0 0 531.000000 531.000000"
 preserveAspectRatio="xMidYMid meet">
<metadata>
Created by potrace 1.11, written by Peter Selinger 2001-2013
</metadata>
<g transform="translate(0.000000,531.000000) scale(0.100000,-0.100000)"
fill="#000000" stroke="none">
<path d="M2596 5006 c-18 -19 -43 -67 -59 -112 -45 -123 -50 -134 -67 -130 -8
3 -31 8 -50 11 -19 4 -73 18 -120 32 -412 120 -597 119 -748 -4 -79 -64 -201
-252 -217 -333 -2 -12 -6 -29 -9 -38 -22 -75 -25 -272 -6 -353 19 -81 92 -228
125 -251 25 -18 -8 -17 -55 2 -216 85 -514 27 -668 -131 -79 -80 -155 -252
-171 -387 -15 -124 -7 -200 45 -411 27 -109 35 -166 35 -225 -1 -43 -3 -81 -5
-85 -2 -3 -7 -31 -11 -61 -3 -30 -8 -62 -10 -70 -41 -151 -53 -510 -21 -630
51 -189 187 -350 315 -375 12 -2 24 -6 29 -8 12 -8 112 -20 176 -21 108 -3
191 13 303 58 145 58 470 220 570 284 44 29 83 52 86 52 3 0 2 -12 -3 -27 -23
-66 -10 -174 21 -194 16 -9 3 -29 -61 -95 -147 -151 -365 -230 -505 -184 -40
13 -71 6 -102 -22 -48 -44 -36 -108 34 -195 100 -123 190 -179 301 -186 35 -2
43 -6 53 -29 10 -25 126 -106 309 -218 32 -20 62 -47 70 -64 11 -23 74 -70
230 -175 185 -124 220 -144 255 -145 35 0 65 17 255 145 163 109 219 153 232
178 12 24 42 49 105 87 132 79 255 166 267 189 6 11 12 22 13 24 1 1 21 5 45
7 119 11 234 90 324 224 40 59 46 86 29 127 -21 51 -75 69 -143 49 -64 -19
-165 -5 -269 37 -81 33 -138 73 -216 152 l-64 66 23 44 c23 46 25 100 9 175
l-7 31 79 -49 c159 -100 498 -266 635 -313 170 -57 442 -34 559 47 102 71 197
239 215 379 19 156 3 418 -41 635 -7 37 -19 169 -17 203 1 21 15 94 32 162 52
206 66 341 47 445 -3 14 -8 43 -12 65 -12 61 -63 177 -107 243 -58 85 -162
160 -267 193 -73 22 -217 47 -247 43 -10 -2 -43 -6 -72 -9 -30 -3 -83 -17
-119 -31 -37 -13 -67 -23 -69 -21 -1 1 17 34 42 72 61 94 95 207 97 315 1 74
-7 172 -19 233 -21 109 -134 295 -226 370 -86 71 -158 92 -308 89 -110 -1
-198 -18 -394 -74 -77 -22 -152 -42 -166 -44 -14 -3 -30 -6 -37 -9 -22 -7 -41
21 -79 120 -45 118 -75 155 -130 155 -29 0 -43 -7 -68 -34z"/>
</g>
</svg>
